<?xml version="1.0" encoding="UTF-8" standalone="no"?>
<!-- Created with Inkscape (http://www.inkscape.org/) -->

<svg
   width="45.691513mm"
   height="60.987732mm"
   viewBox="0 0 45.691513 60.987732"
   version="1.1"
   id="svg8098"
   xmlns:inkscape="http://www.inkscape.org/namespaces/inkscape"
   xmlns:sodipodi="http://sodipodi.sourceforge.net/DTD/sodipodi-0.dtd"
   xmlns="http://www.w3.org/2000/svg"
   xmlns:svg="http://www.w3.org/2000/svg">
  <sodipodi:namedview
     id="namedview8100"
     pagecolor="#ffffff"
     bordercolor="#000000"
     borderopacity="0.25"
     inkscape:showpageshadow="2"
     inkscape:pageopacity="0.0"
     inkscape:pagecheckerboard="0"
     inkscape:deskcolor="#d1d1d1"
     inkscape:document-units="mm"
     showgrid="false" />
  <defs
     id="defs8095" />
  <g
     inkscape:label="Livello 1"
     inkscape:groupmode="layer"
     id="layer1"
     transform="translate(-90.297106,-72.466139)">
    <path
       style="fill:#000000;stroke-width:0.352778"
       d="m 102.67617,133.38257 c -0.33851,-0.12839 -0.44097,-2.49659 -0.44097,-10.19202 v -10.02477 h -1.34962 c -1.831262,0 -2.838312,-1.12572 -3.359632,-3.75555 -0.38904,-1.96247 -0.46788,-2.07096 -1.88416,-2.5927 -0.81297,-0.29948 -1.89976,-0.93833 -2.41509,-1.41966 -0.97797,-0.91344 -1.01537,-1.54821 -0.30631,-5.19763 0.19057,-0.980822 0.0391,-1.351012 -1.043,-2.548742 -2.12152,-2.34827 -2.10995,-3.677632 0.0529,-6.071586 1.24408,-1.377047 1.25767,-1.4247 0.84579,-2.964676 -0.68812,-2.572815 -0.54408,-3.624169 0.64927,-4.738924 0.58734,-0.548652 1.52887,-1.098798 2.09229,-1.222547 1.2871,-0.282693 1.62303,-0.708908 1.93936,-2.460512 0.59026,-3.268501 1.88493,-4.281916 5.014232,-3.924933 1.76783,0.201668 1.84523,0.172846 2.53563,-0.944248 1.86847,-3.023258 3.70003,-3.550452 6.54418,-1.88367 l 1.55969,0.914036 2.04406,-1.075241 c 2.83051,-1.488933 4.29688,-1.003815 6.18108,2.044875 0.6904,1.117094 0.76779,1.145916 2.53562,0.944248 3.20962,-0.366145 4.46499,0.674909 4.96534,4.117661 0.22688,1.561052 0.30062,1.643282 2.16758,2.417093 2.94886,1.222235 3.47253,2.408643 2.56344,5.807621 -0.40532,1.51546 -0.38423,1.598355 0.72919,2.866475 2.21525,2.523039 2.24632,3.87414 0.14259,6.202718 -1.2737,1.40983 -1.2858,1.45134 -0.87299,2.994782 0.70882,2.65021 0.55277,3.84884 -0.63076,4.84471 -0.57716,0.48565 -1.61888,1.07095 -2.31494,1.30066 -1.35912,0.44856 -1.92736,1.39814 -1.92736,3.22084 0,1.45144 -1.68576,3.1249 -3.14786,3.1249 h -1.08547 v 10.03335 c 0,6.14696 -0.13343,10.11581 -0.34447,10.24624 -0.18945,0.11709 -2.71983,-0.99028 -5.62305,-2.46082 l -5.27859,-2.67371 -5.04847,2.61949 c -2.77666,1.44072 -5.24691,2.54422 -5.48945,2.45224 z m 5.99372,-4.20784 4.66073,-2.3355 4.68618,2.3355 c 2.5774,1.28452 4.76405,2.3355 4.85923,2.3355 0.0952,0 0.17306,-4.1275 0.17306,-9.17223 0,-8.89727 -0.0209,-9.17222 -0.6965,-9.17222 -0.41068,0 -0.91216,0.41706 -1.22205,1.01631 -0.74959,1.44956 -2.56107,2.86425 -3.66758,2.86425 -0.52023,0 -1.71995,-0.41207 -2.66604,-0.91571 l -1.72016,-0.91572 -1.80987,0.91572 c -0.99543,0.50364 -2.22275,0.91571 -2.72737,0.91571 -1.13104,0 -2.48208,-1.02776 -3.48567,-2.65162 -0.41774,-0.67592 -0.90533,-1.22894 -1.08354,-1.22894 -0.18851,0 -0.324,3.8356 -0.324,9.17222 0,5.04473 0.0816,9.17223 0.18143,9.17223 0.0998,0 2.27875,-1.05098 4.84215,-2.3355 z m 2.20836,-14.41224 c 1.78104,-1.09697 2.47727,-1.1 4.23334,-0.0184 1.86429,1.14825 3.14108,1.14411 3.95228,-0.0128 2.11341,-3.01417 2.09843,-3.00497 4.718,-2.89846 2.94548,0.11976 3.42896,-0.25127 3.73904,-2.86946 0.25237,-2.13086 0.89325,-2.90481 2.90436,-3.50735 1.76579,-0.52904 2.27198,-1.17476 2.0414,-2.60409 -0.10216,-0.63326 -0.29846,-1.81877 -0.43622,-2.63446 -0.23455,-1.388802 -0.15796,-1.588152 1.20492,-3.136472 0.80046,-0.90935 1.45538,-1.938872 1.45538,-2.28781 0,-0.348938 -0.64919,-1.384513 -1.44264,-2.301278 -1.55469,-1.796304 -1.49236,-1.363331 -0.82111,-5.703197 0.24044,-1.554503 -0.31071,-2.211938 -2.42305,-2.890305 -1.5802,-0.507473 -2.21186,-1.384715 -2.54965,-3.540896 -0.37038,-2.364227 -0.98402,-2.875544 -3.32993,-2.774667 -2.61347,0.112382 -3.21915,-0.14304 -4.23435,-1.785659 -1.20498,-1.949693 -2.12274,-2.382406 -3.51105,-1.655417 -0.60005,0.314215 -1.57162,0.823235 -2.15905,1.131156 -1.02796,0.538836 -1.14789,0.518308 -3.1944,-0.546783 -2.49511,-1.298563 -3.18785,-1.196953 -4.34585,0.637439 -1.31054,2.076022 -1.78644,2.323782 -4.28627,2.231485 -2.01318,-0.07433 -2.2993,0.0023 -2.787072,0.746768 -0.29897,0.456281 -0.6821,1.571075 -0.8514,2.477319 -0.37908,2.029097 -0.80224,2.561743 -2.45698,3.092692 -0.71208,0.228483 -1.58873,0.67276 -1.9481,0.987282 -0.67024,0.586596 -0.67036,0.619998 -0.0168,4.660601 0.18014,1.113609 0.0322,1.463909 -1.23833,2.931872 -0.7936,0.916936 -1.44291,1.95265 -1.44291,2.301588 0,0.348938 0.65192,1.37505 1.4487,2.28024 1.54773,1.75831 1.4989,1.43892 0.82817,5.417512 -0.30466,1.80713 0.0906,2.39644 1.98861,2.9651 1.95987,0.58719 2.65697,1.39436 2.9206,3.38177 0.3604,2.71679 0.78859,3.0802 3.510822,2.97969 2.2806,-0.0842 2.31965,-0.0699 3.30202,1.21032 2.28723,2.98066 2.88337,3.17849 5.22747,1.73473 z"
       id="path5422-2" />
    <circle
       style="fill:none;stroke:#000000;stroke-width:4.42;stroke-dasharray:none;stroke-opacity:1"
       id="path5471-9"
       cx="113.14286"
       cy="94.929771"
       r="13.156766" />
    <path
       style="fill:#000000;fill-opacity:1;stroke:#000000;stroke-width:0.7;stroke-dasharray:none;stroke-opacity:1"
       d="m 107.83892,115.31461 c -0.23691,-0.14448 -0.8097,-0.69241 -1.27286,-1.21764 -0.46316,-0.52523 -1.10811,-1.25005 -1.43323,-1.61072 l -0.59112,-0.65577 -2.17308,-0.0707 c -3.000627,-0.0977 -3.116779,-0.18944 -3.573963,-2.82446 -0.382884,-2.20678 -0.836801,-2.777 -2.756226,-3.46246 -1.323027,-0.47247 -1.887447,-0.81731 -2.09949,-1.28269 -0.223549,-0.49064 -0.214365,-0.68801 0.135531,-2.91292 0.168957,-1.07435 0.263109,-2.137562 0.212915,-2.404292 -0.05671,-0.30132 -0.461409,-0.9228 -1.094219,-1.68032 -0.552323,-0.66118 -1.135086,-1.467119 -1.295027,-1.790971 -0.379528,-0.768472 -0.265525,-1.047091 1.186622,-2.900008 0.701903,-0.89562 1.137309,-1.589678 1.19706,-1.908175 0.05184,-0.27632 -0.0093,-1.143654 -0.136419,-1.936067 -0.126677,-0.789522 -0.271164,-1.80281 -0.321077,-2.251747 -0.09052,-0.814139 -0.08927,-0.817661 0.483015,-1.362067 0.363167,-0.345472 0.954455,-0.688695 1.6109,-0.935072 2.046025,-0.767916 2.184162,-0.931844 2.81664,-3.342572 0.219006,-0.834744 0.527873,-1.771914 0.686374,-2.082604 0.47379,-0.928698 0.684824,-1.007758 2.692364,-1.008652 2.71597,-0.0013 3.05296,-0.161587 4.42673,-2.106726 1.35198,-1.914301 1.70902,-1.981293 4.2087,-0.789678 2.37159,1.130553 2.29381,1.130622 4.49389,-0.004 1.61893,-0.834927 1.90982,-0.940618 2.35765,-0.856602 0.6487,0.121695 1.16477,0.591574 2.09262,1.905333 1.19103,1.686404 1.54655,1.843567 4.18293,1.84911 2.38088,0.005 2.80645,0.281585 3.22379,2.095193 0.708,3.076752 1.01858,3.549671 2.76056,4.203478 2.42326,0.90951 2.62782,1.296466 2.16724,4.099702 -0.252,1.533732 -0.26853,2.667429 -0.045,3.08537 0.0909,0.169902 0.56734,0.803003 1.05881,1.406888 0.49147,0.603882 1.02431,1.354227 1.18409,1.66743 l 0.29052,0.56946 -0.36334,0.666142 c -0.19984,0.366376 -0.74297,1.111635 -1.20696,1.656135 -1.30106,1.52682 -1.33951,1.70078 -0.93437,4.227852 0.46593,2.90629 0.33749,3.25349 -1.44322,3.90161 -1.47028,0.53512 -1.86867,0.75343 -2.35276,1.28925 -0.52989,0.58653 -0.69748,1.06781 -0.93322,2.68005 -0.20003,1.36805 -0.60915,2.12808 -1.26731,2.35433 -0.28216,0.097 -1.32124,0.1722 -2.44271,0.17679 -1.40591,0.006 -2.06143,0.0647 -2.3442,0.21096 -0.49145,0.25415 -1.21698,1.05163 -1.9831,2.1798 -1.13693,1.6742 -1.83212,1.7623 -4.19017,0.53103 -2.02175,-1.05567 -2.22826,-1.05303 -4.39246,0.0562 -0.91061,0.46671 -1.82148,0.84833 -2.02417,0.84804 -0.20269,-2.6e-4 -0.56236,-0.11873 -0.79927,-0.2632 z m 9.03487,-5.44515 c 5.40944,-1.4095 9.61678,-5.61485 11.0871,-11.081892 0.33473,-1.24461 0.3719,-1.63015 0.3719,-3.857801 0,-2.231136 -0.0369,-2.612083 -0.37405,-3.866263 -1.46714,-5.457095 -5.63023,-9.617816 -11.09342,-11.087103 -1.2446,-0.33473 -1.63014,-0.371896 -3.8578,-0.371896 -2.22765,0 -2.61319,0.03717 -3.85779,0.371896 -5.46319,1.469287 -9.626284,5.630008 -11.093425,11.087103 -0.337188,1.25418 -0.374042,1.635127 -0.374042,3.866263 0,2.227651 0.03717,2.613191 0.371893,3.857801 1.58242,5.883832 6.246174,10.213102 12.217474,11.341242 1.71948,0.32485 4.82882,0.20271 6.60216,-0.25935 z"
       id="path5542-3" />
    <circle
       id="path6453-6"
       style="fill:#000000;stroke:#000000;stroke-width:0.264583"
       cx="113.14286"
       cy="122.2862"
       r="0.017620927" />
    <path
       style="fill:none;fill-opacity:1;stroke:#000000;stroke-width:1.3;stroke-dasharray:none;stroke-opacity:1"
       d="m 123.65001,121.6887 6.87535,-4.67524 v -12.45064"
       id="path8217" />
    <path
       style="fill:none;fill-opacity:1;stroke:#000000;stroke-width:1.3;stroke-dasharray:none;stroke-opacity:1"
       d="m 102.61716,121.69806 -6.875354,-4.67524 v -12.45064"
       id="path8217-7" />
  </g>
</svg>
