<?xml version="1.0" encoding="UTF-8" standalone="no"?>
<!-- Created with Inkscape (http://www.inkscape.org/) -->

<svg
   width="45.691513mm"
   height="68.286682mm"
   viewBox="0 0 45.691513 68.286682"
   version="1.1"
   id="svg8098"
   xmlns:inkscape="http://www.inkscape.org/namespaces/inkscape"
   xmlns:sodipodi="http://sodipodi.sourceforge.net/DTD/sodipodi-0.dtd"
   xmlns="http://www.w3.org/2000/svg"
   xmlns:svg="http://www.w3.org/2000/svg">
  <sodipodi:namedview
     id="namedview8100"
     pagecolor="#ffffff"
     bordercolor="#000000"
     borderopacity="0.25"
     inkscape:showpageshadow="2"
     inkscape:pageopacity="0.0"
     inkscape:pagecheckerboard="0"
     inkscape:deskcolor="#d1d1d1"
     inkscape:document-units="mm"
     showgrid="false" />
  <defs
     id="defs8095" />
  <g
     inkscape:label="Livello 1"
     inkscape:groupmode="layer"
     id="layer1"
     transform="translate(-184.7714,-150.84524)">
    <path
       style="fill:#000000;stroke-width:0.352778"
       d="m 197.15045,211.76166 c -0.33851,-0.12839 -0.44097,-2.49659 -0.44097,-10.19202 v -10.02477 h -1.34962 c -1.83126,0 -2.83831,-1.12572 -3.35963,-3.75555 -0.38904,-1.96247 -0.46788,-2.07096 -1.88416,-2.5927 -0.81297,-0.29948 -1.89976,-0.93833 -2.41509,-1.41966 -0.97797,-0.91344 -1.01537,-1.54821 -0.30631,-5.19763 0.19057,-0.98082 0.0391,-1.35101 -1.043,-2.54874 -2.12152,-2.34827 -2.10995,-3.67763 0.0529,-6.07158 1.24408,-1.37705 1.25767,-1.4247 0.84579,-2.96468 -0.68812,-2.57281 -0.54408,-3.62417 0.64927,-4.73892 0.58734,-0.54865 1.52887,-1.0988 2.09229,-1.22255 1.2871,-0.28269 1.62303,-0.70891 1.93936,-2.46051 0.59026,-3.2685 1.88493,-4.28192 5.01423,-3.92493 1.76783,0.20166 1.84523,0.17284 2.53563,-0.94425 1.86847,-3.02326 3.70004,-3.55045 6.54419,-1.88367 l 1.55969,0.91403 2.04406,-1.07524 c 2.83051,-1.48893 4.29688,-1.00381 6.18108,2.04488 0.6904,1.11709 0.76779,1.14591 2.53562,0.94425 3.20962,-0.36615 4.46499,0.6749 4.96534,4.11766 0.22688,1.56105 0.30062,1.64328 2.16758,2.41709 2.94886,1.22223 3.47253,2.40864 2.56344,5.80762 -0.40532,1.51546 -0.38423,1.59836 0.72919,2.86647 2.21525,2.52304 2.24632,3.87415 0.14259,6.20272 -1.2737,1.40983 -1.2858,1.45134 -0.87299,2.99478 0.70882,2.65021 0.55277,3.84884 -0.63076,4.84471 -0.57716,0.48565 -1.61888,1.07095 -2.31494,1.30066 -1.35912,0.44856 -1.92736,1.39814 -1.92736,3.22084 0,1.45144 -1.68576,3.1249 -3.14786,3.1249 h -1.08547 v 10.03335 c 0,6.14696 -0.13343,10.11581 -0.34447,10.24624 -0.18945,0.11709 -2.71983,-0.99028 -5.62305,-2.46082 l -5.27859,-2.67371 -5.04848,2.61949 c -2.77666,1.44072 -5.24691,2.54422 -5.48945,2.45224 z m 5.99373,-4.20784 4.66073,-2.3355 4.68618,2.3355 c 2.5774,1.28452 4.76405,2.3355 4.85923,2.3355 0.0952,0 0.17306,-4.1275 0.17306,-9.17223 0,-8.89727 -0.0209,-9.17222 -0.6965,-9.17222 -0.41068,0 -0.91216,0.41706 -1.22205,1.01631 -0.74959,1.44956 -2.56107,2.86425 -3.66758,2.86425 -0.52023,0 -1.71995,-0.41207 -2.66604,-0.91571 l -1.72016,-0.91572 -1.80987,0.91572 c -0.99543,0.50364 -2.22275,0.91571 -2.72737,0.91571 -1.13105,0 -2.48209,-1.02776 -3.48568,-2.65162 -0.41774,-0.67592 -0.90533,-1.22894 -1.08354,-1.22894 -0.18851,0 -0.324,3.8356 -0.324,9.17222 0,5.04473 0.0816,9.17223 0.18143,9.17223 0.0998,0 2.27875,-1.05098 4.84216,-2.3355 z m 2.20836,-14.41224 c 1.78104,-1.09697 2.47727,-1.1 4.23334,-0.0184 1.86429,1.14825 3.14108,1.14411 3.95228,-0.0128 2.11341,-3.01417 2.09843,-3.00497 4.718,-2.89846 2.94548,0.11976 3.42896,-0.25127 3.73904,-2.86946 0.25237,-2.13086 0.89325,-2.90481 2.90436,-3.50735 1.76579,-0.52904 2.27198,-1.17476 2.0414,-2.60409 -0.10216,-0.63326 -0.29846,-1.81877 -0.43622,-2.63446 -0.23455,-1.3888 -0.15796,-1.58815 1.20492,-3.13647 0.80046,-0.90935 1.45538,-1.93887 1.45538,-2.28781 0,-0.34893 -0.64919,-1.38451 -1.44264,-2.30127 -1.55469,-1.79631 -1.49236,-1.36334 -0.82111,-5.7032 0.24044,-1.5545 -0.31071,-2.21194 -2.42305,-2.89031 -1.5802,-0.50747 -2.21186,-1.38471 -2.54965,-3.54089 -0.37038,-2.36423 -0.98402,-2.87555 -3.32993,-2.77467 -2.61347,0.11238 -3.21915,-0.14304 -4.23435,-1.78566 -1.20498,-1.94969 -2.12274,-2.3824 -3.51105,-1.65542 -0.60005,0.31422 -1.57162,0.82324 -2.15905,1.13116 -1.02796,0.53884 -1.14789,0.51831 -3.1944,-0.54678 -2.49511,-1.29857 -3.18786,-1.19696 -4.34586,0.63744 -1.31054,2.07602 -1.78644,2.32378 -4.28627,2.23148 -2.01318,-0.0743 -2.2993,0.002 -2.78707,0.74677 -0.29897,0.45628 -0.6821,1.57107 -0.8514,2.47732 -0.37908,2.0291 -0.80224,2.56174 -2.45698,3.09269 -0.71208,0.22848 -1.58873,0.67276 -1.9481,0.98728 -0.67024,0.5866 -0.67036,0.62 -0.0168,4.6606 0.18014,1.11361 0.0322,1.46391 -1.23833,2.93187 -0.7936,0.91694 -1.44291,1.95266 -1.44291,2.30159 0,0.34894 0.65192,1.37505 1.4487,2.28024 1.54773,1.75831 1.4989,1.43892 0.82817,5.41751 -0.30466,1.80713 0.0906,2.39644 1.98861,2.9651 1.95987,0.58719 2.65697,1.39436 2.9206,3.38177 0.3604,2.71679 0.78859,3.0802 3.51082,2.97969 2.2806,-0.0842 2.31965,-0.0699 3.30202,1.21032 2.28723,2.98066 2.88338,3.17849 5.22748,1.73473 z"
       id="path5422-18" />
    <circle
       style="fill:none;stroke:#000000;stroke-width:4.42;stroke-dasharray:none;stroke-opacity:1"
       id="path5471-7"
       cx="207.61714"
       cy="173.30887"
       r="13.156766" />
    <path
       style="fill:#000000;fill-opacity:1;stroke:#000000;stroke-width:0.7;stroke-dasharray:none;stroke-opacity:1"
       d="m 202.3132,193.6937 c -0.23691,-0.14448 -0.8097,-0.69241 -1.27286,-1.21764 -0.46316,-0.52523 -1.10811,-1.25005 -1.43323,-1.61072 l -0.59112,-0.65577 -2.17308,-0.0707 c -3.00063,-0.0977 -3.11678,-0.18944 -3.57396,-2.82446 -0.38289,-2.20678 -0.8368,-2.777 -2.75623,-3.46246 -1.32302,-0.47247 -1.88744,-0.81731 -2.09949,-1.28269 -0.22354,-0.49064 -0.21436,-0.68801 0.13554,-2.91292 0.16895,-1.07435 0.2631,-2.13756 0.21291,-2.40429 -0.0567,-0.30132 -0.46141,-0.9228 -1.09422,-1.68032 -0.55232,-0.66118 -1.13508,-1.46711 -1.29503,-1.79097 -0.37952,-0.76847 -0.26552,-1.04709 1.18663,-2.90001 0.7019,-0.89562 1.13731,-1.58967 1.19706,-1.90817 0.0518,-0.27632 -0.009,-1.14366 -0.13642,-1.93607 -0.12668,-0.78952 -0.27117,-1.80281 -0.32108,-2.25175 -0.0905,-0.81413 -0.0893,-0.81766 0.48302,-1.36206 0.36316,-0.34547 0.95445,-0.6887 1.6109,-0.93507 2.04602,-0.76792 2.18415,-0.93185 2.81663,-3.34258 0.21901,-0.83474 0.52787,-1.77191 0.68638,-2.0826 0.47379,-0.9287 0.68482,-1.00776 2.69236,-1.00865 2.71597,-0.001 3.05296,-0.16159 4.42673,-2.10673 1.35198,-1.9143 1.70902,-1.98129 4.20871,-0.78968 2.37159,1.13056 2.29381,1.13063 4.49389,-0.004 1.61893,-0.83492 1.90982,-0.94061 2.35765,-0.8566 0.6487,0.1217 1.16477,0.59158 2.09262,1.90534 1.19103,1.6864 1.54655,1.84356 4.18293,1.84911 2.38088,0.005 2.80645,0.28158 3.22379,2.09519 0.708,3.07675 1.01858,3.54967 2.76056,4.20348 2.42326,0.90951 2.62782,1.29646 2.16724,4.0997 -0.252,1.53373 -0.26853,2.66743 -0.045,3.08537 0.0909,0.1699 0.56734,0.803 1.05881,1.40689 0.49147,0.60388 1.02431,1.35422 1.18409,1.66743 l 0.29052,0.56946 -0.36334,0.66614 c -0.19984,0.36638 -0.74297,1.11163 -1.20696,1.65613 -1.30106,1.52682 -1.33951,1.70078 -0.93437,4.22785 0.46593,2.90629 0.33749,3.25349 -1.44322,3.90161 -1.47028,0.53512 -1.86867,0.75343 -2.35276,1.28925 -0.52989,0.58653 -0.69748,1.06781 -0.93322,2.68005 -0.20003,1.36805 -0.60915,2.12808 -1.26731,2.35433 -0.28216,0.097 -1.32124,0.1722 -2.44271,0.17679 -1.40591,0.006 -2.06143,0.0647 -2.3442,0.21096 -0.49145,0.25415 -1.21698,1.05163 -1.9831,2.1798 -1.13693,1.6742 -1.83212,1.7623 -4.19017,0.53103 -2.02175,-1.05567 -2.22826,-1.05303 -4.39246,0.0562 -0.91061,0.46671 -1.82148,0.84833 -2.02417,0.84804 -0.2027,-2.6e-4 -0.56237,-0.11873 -0.79928,-0.2632 z m 9.03488,-5.44515 c 5.40944,-1.4095 9.61678,-5.61485 11.0871,-11.08189 0.33473,-1.24461 0.3719,-1.63015 0.3719,-3.8578 0,-2.23113 -0.0369,-2.61208 -0.37405,-3.86626 -1.46714,-5.4571 -5.63023,-9.61782 -11.09342,-11.0871 -1.2446,-0.33473 -1.63014,-0.3719 -3.8578,-0.3719 -2.22765,0 -2.61319,0.0372 -3.85779,0.3719 -5.4632,1.46928 -9.62629,5.63 -11.09343,11.0871 -0.33719,1.25418 -0.37405,1.63513 -0.37405,3.86626 0,2.22765 0.0372,2.61319 0.3719,3.8578 1.58242,5.88383 6.24617,10.2131 12.21748,11.34124 1.71948,0.32485 4.82882,0.20271 6.60216,-0.25935 z"
       id="path5542-2" />
    <circle
       id="path6453-5"
       style="fill:#000000;stroke:#000000;stroke-width:0.264583"
       cx="207.61714"
       cy="200.6653"
       r="0.017620927" />
    <path
       style="fill:none;fill-opacity:1;stroke:#000000;stroke-width:1.3;stroke-dasharray:none;stroke-opacity:1"
       d="m 218.1243,200.06779 6.87535,-4.67524 v -12.45064"
       id="path8217-8" />
    <path
       style="fill:none;fill-opacity:1;stroke:#000000;stroke-width:1.3;stroke-dasharray:none;stroke-opacity:1"
       d="m 197.09144,200.07715 -6.87535,-4.67524 v -12.45064"
       id="path8217-7-95" />
    <path
       style="fill:none;fill-opacity:1;stroke:#000000;stroke-width:1.3;stroke-dasharray:none;stroke-opacity:1"
       d="m 193.01459,197.40503 c 0,1.30007 0,20.60105 0,20.60105 l 9.52404,-5.49871 v -3.90177"
       id="path8385-8" />
    <path
       style="fill:none;fill-opacity:1;stroke:#000000;stroke-width:1.3;stroke-dasharray:none;stroke-opacity:1"
       d="m 218.12377,200.03955 6.87536,-4.67524 v -12.45064"
       id="path8217-7-9-7" />
    <path
       style="fill:none;fill-opacity:1;stroke:#000000;stroke-width:1.3;stroke-dasharray:none;stroke-opacity:1"
       d="m 222.20063,197.36743 c 0,1.30007 0,20.60105 0,20.60105 l -9.52405,-5.49871 V 208.568"
       id="path8385-2-1" />
    <path
       style="fill:none;fill-opacity:1;stroke:#000000;stroke-width:1.3;stroke-dasharray:none;stroke-opacity:1"
       d="m 202.56508,211.85577 5.04349,2.91186 5.11046,-2.95053"
       id="path8563"
       inkscape:export-filename="lv4.svg"
       inkscape:export-xdpi="96"
       inkscape:export-ydpi="96" />
  </g>
</svg>
